<?xml version="1.0" encoding="UTF-8" standalone="no"?>
<!-- Created with Inkscape (http://www.inkscape.org/) -->

<svg
   width="124.42712mm"
   height="57.85022mm"
   viewBox="0 0 124.42712 57.85022"
   version="1.1"
   id="svg5"
   xml:space="preserve"
   inkscape:version="1.2 (dc2aedaf03, 2022-05-15)"
   sodipodi:docname="relatorio.svg"
   xmlns:inkscape="http://www.inkscape.org/namespaces/inkscape"
   xmlns:sodipodi="http://sodipodi.sourceforge.net/DTD/sodipodi-0.dtd"
   xmlns="http://www.w3.org/2000/svg"
   xmlns:svg="http://www.w3.org/2000/svg"><sodipodi:namedview
     id="namedview7"
     pagecolor="#ffffff"
     bordercolor="#999999"
     borderopacity="1"
     inkscape:showpageshadow="0"
     inkscape:pageopacity="0"
     inkscape:pagecheckerboard="0"
     inkscape:deskcolor="#d1d1d1"
     inkscape:document-units="mm"
     showgrid="false"
     inkscape:zoom="0.50000001"
     inkscape:cx="-6214.9998"
     inkscape:cy="203.99999"
     inkscape:window-width="1920"
     inkscape:window-height="974"
     inkscape:window-x="-11"
     inkscape:window-y="-11"
     inkscape:window-maximized="1"
     inkscape:current-layer="layer1" /><defs
     id="defs2" /><g
     inkscape:label="Camada 1"
     inkscape:groupmode="layer"
     id="layer1"
     transform="translate(1194.132,556.22093)"><g
       id="g54276"
       transform="matrix(2.3568546,0,0,2.3568546,514.80001,-581.57685)"
       style="stroke-width:0.398996"
       inkscape:export-filename="..\..\mockupSIGMO\img\logo_prograd_verde.png"
       inkscape:export-xdpi="96"
       inkscape:export-ydpi="96"><g
         id="g54256"
         transform="matrix(0.01,0,0,0.01,-738.75428,-5.110117)"
         style="clip-rule:evenodd;fill-rule:evenodd;stroke-width:0.398996;image-rendering:optimizeQuality;shape-rendering:geometricPrecision;text-rendering:geometricPrecision">
    <path
   class="fil0"
   d="M 1528.27,3448.17 H 1368.7 v 376.1 h 84.88 v -107.46 h 74.69 c 95.64,0 150.43,-50.5 150.43,-138.07 0,-83.29 -54.79,-130.57 -150.43,-130.57 z m -4.3,197.72 h -70.39 v -127.33 h 70.39 c 47.28,0 74.14,20.95 74.14,62.86 0,42.98 -26.86,64.47 -74.14,64.47 z"
   id="path54154"
   style="fill:#0b6641;fill-rule:nonzero;stroke-width:0.398996" />
    <path
   class="fil0"
   d="m 2025.24,3824.27 -80.06,-124.11 c 45.67,-21.49 70.39,-63.4 70.39,-121.42 0,-83.29 -55.88,-130.57 -154.2,-130.57 h -163.33 v 376.1 h 84.89 v -107.46 h 78.44 8.05 l 59.65,107.46 z m -242.31,-305.71 h 78.44 c 46.74,0 73.61,20.95 73.61,62.86 0,42.98 -26.87,64.47 -73.61,64.47 h -78.44 z"
   id="path54156"
   style="fill:#0b6641;fill-rule:nonzero;stroke-width:0.398996" />
    <path
   class="fil0"
   d="m 2227.24,3445.49 c -114.98,0 -202.02,81.13 -202.02,190.73 0,109.07 87.04,191.81 202.02,191.81 114.97,0 202.01,-83.28 202.01,-191.81 0,-109.06 -87.04,-190.73 -202.01,-190.73 z m 1.07,74.14 c 62.86,0 113.9,50.51 113.9,116.59 0,66.09 -51.04,117.67 -113.9,117.67 -62.86,0 -116.05,-51.58 -116.05,-117.67 0,-66.08 52.65,-116.59 116.05,-116.59 z"
   id="path54158"
   style="fill:#0b6641;fill-rule:nonzero;stroke-width:0.398996" />
    <path
   class="fil0"
   d="m 2721.19,3733.47 c -24.17,12.36 -51.04,20.42 -73.6,20.42 -66.62,0 -118.74,-51.05 -118.74,-117.67 0,-66.08 51.58,-117.13 118.2,-117.13 36.54,0 75.22,16.12 103.16,41.92 l 47.82,-60.72 c -38.15,-33.31 -95.1,-54.8 -150.98,-54.8 -117.13,0 -205.24,82.2 -205.24,190.73 0,109.07 86.5,191.81 200.41,191.81 52.12,0 112.82,-19.88 152.58,-48.89 v -144.53 h -73.61 z"
   id="path54160"
   style="fill:#0b6641;fill-rule:nonzero;stroke-width:0.398996" />
    <path
   class="fil0"
   d="m 3142.74,3824.27 -80.06,-124.11 c 45.67,-21.49 70.38,-63.4 70.38,-121.42 0,-83.29 -55.87,-130.57 -154.19,-130.57 h -163.33 v 376.1 h 84.88 v -107.46 h 78.45 8.05 l 59.64,107.46 z m -242.32,-305.71 h 78.45 c 46.74,0 73.6,20.95 73.6,62.86 0,42.98 -26.86,64.47 -73.6,64.47 h -78.45 z"
   id="path54162"
   style="fill:#0b6641;fill-rule:nonzero;stroke-width:0.398996" />
    <path
   class="fil0"
   d="m 3447.37,3824.27 h 90.8 l -160.64,-376.1 h -87.58 l -163.34,376.1 h 87.58 l 29.55,-73.07 h 174.08 z m -175.69,-141.3 59.64,-146.15 59.1,146.15 z"
   id="path54164"
   style="fill:#0b6641;fill-rule:nonzero;stroke-width:0.398996" />
    <path
   class="fil0"
   d="m 3702.04,3448.17 h -159.58 v 376.1 h 156.35 c 118.74,0 200.94,-77.36 200.94,-188.05 0,-111.22 -81.13,-188.05 -197.71,-188.05 z m 2.14,304.65 h -76.83 v -233.19 h 73.07 c 64.48,0 112.83,47.82 112.83,117.13 0,68.77 -46.21,116.06 -109.07,116.06 z"
   id="path54166"
   style="fill:#0b6641;fill-rule:nonzero;stroke-width:0.398996" />
    <path
   class="fil1"
   d="m 1399.74,3925.48 h -33.32 v 88.68 h 10.14 v -28.13 h 23.18 c 21.92,0 34.58,-11.27 34.58,-30.78 0,-18.87 -12.66,-29.77 -34.58,-29.77 z m -0.38,51.18 h -22.8 v -41.81 h 22.8 c 15.96,0 25.21,7.1 25.21,20.65 0,13.94 -9.25,21.16 -25.21,21.16 z"
   id="path54168"
   style="fill:#373435;fill-rule:nonzero;stroke-width:0.398996" />
    <path
   class="fil1"
   d="m 1513.37,4014.16 -20.9,-30.28 c 12.79,-4.05 20.01,-14.06 20.01,-28.63 0,-18.87 -12.8,-29.77 -34.97,-29.77 h -33.7 v 88.68 h 10.14 v -28.13 h 23.56 c 2.03,0 3.93,-0.12 5.71,-0.25 l 18.62,28.38 z m -59.42,-37.5 v -41.81 h 23.56 c 16.1,0 25.22,7.1 25.22,20.65 0,13.94 -9.12,21.16 -25.22,21.16 z"
   id="path54170"
   style="fill:#373435;fill-rule:nonzero;stroke-width:0.398996" />
    <path
   class="fil1"
   d="m 1574.3,3897.1 -15.2,17.1 h 9.5 l 15.71,-12.54 z m -8.11,28.13 c -25.97,0 -46.49,19.64 -46.49,44.59 0,24.96 20.52,44.72 46.49,44.72 25.84,0 46.37,-19.76 46.37,-44.72 0,-24.95 -20.53,-44.59 -46.37,-44.59 z m 0,9.37 c 19.77,0 35.98,15.58 35.98,35.22 0,19.63 -16.21,35.47 -35.98,35.47 -19.76,0 -36.23,-15.84 -36.23,-35.47 0,-19.64 16.47,-35.22 36.23,-35.22 z"
   id="path54172"
   style="fill:#373435;fill-rule:nonzero;stroke-width:0.398996" />
    <polygon
   class="fil1"
   points="1648.15,3979.45 1648.15,3972.23 1618.38,3972.23 1618.38,3979.45 "
   id="polygon54174"
   style="fill:#373435;fill-rule:nonzero;stroke-width:0.398996" />
    <path
   class="fil1"
   d="m 1732.01,4014.16 -20.91,-30.28 c 12.8,-4.05 20.01,-14.06 20.01,-28.63 0,-18.87 -12.79,-29.77 -34.96,-29.77 h -33.7 v 88.68 h 10.14 v -28.13 h 23.56 c 2.03,0 3.93,-0.12 5.71,-0.25 l 18.62,28.38 z m -59.42,-37.5 v -41.81 h 23.56 c 16.09,0 25.21,7.1 25.21,20.65 0,13.94 -9.12,21.16 -25.21,21.16 z"
   id="path54176"
   style="fill:#373435;fill-rule:nonzero;stroke-width:0.398996" />
    <polygon
   class="fil1"
   points="1808.51,4014.16 1808.51,4004.78 1756.82,4004.78 1756.82,3973.88 1801.54,3973.88 1801.54,3964.63 1756.82,3964.63 1756.82,3934.85 1806.87,3934.85 1806.87,3925.48 1746.68,3925.48 1746.68,4014.16 "
   id="polygon54178"
   style="fill:#373435;fill-rule:nonzero;stroke-width:0.398996" />
    <polygon
   class="fil1"
   points="1831.94,4014.16 1831.94,3925.48 1821.8,3925.48 1821.8,4014.16 "
   id="polygon54180"
   style="fill:#373435;fill-rule:nonzero;stroke-width:0.398996" />
    <polygon
   class="fil1"
   points="1907.42,3934.85 1907.42,3925.48 1839.39,3925.48 1839.39,3934.85 1868.28,3934.85 1868.28,4014.16 1878.41,4014.16 1878.41,3934.85 "
   id="polygon54182"
   style="fill:#373435;fill-rule:nonzero;stroke-width:0.398996" />
    <path
   class="fil1"
   d="m 1947.2,3925.23 c -25.97,0 -46.49,19.64 -46.49,44.59 0,24.96 20.52,44.72 46.49,44.72 25.84,0 46.37,-19.76 46.37,-44.72 0,-24.95 -20.53,-44.59 -46.37,-44.59 z m 0,9.37 c 19.76,0 35.98,15.58 35.98,35.22 0,19.63 -16.22,35.47 -35.98,35.47 -19.76,0 -36.23,-15.84 -36.23,-35.47 0,-19.64 16.47,-35.22 36.23,-35.22 z"
   id="path54184"
   style="fill:#373435;fill-rule:nonzero;stroke-width:0.398996" />
    <path
   class="fil1"
   d="m 2074.26,4014.16 -20.9,-30.28 c 12.79,-4.05 20.01,-14.06 20.01,-28.63 0,-18.87 -12.8,-29.77 -34.97,-29.77 h -33.69 v 88.68 h 10.14 v -28.13 h 23.55 c 2.04,0 3.93,-0.12 5.71,-0.25 l 18.62,28.38 z m -59.41,-37.5 v -41.81 h 23.55 c 16.1,0 25.22,7.1 25.22,20.65 0,13.94 -9.12,21.16 -25.22,21.16 z"
   id="path54186"
   style="fill:#373435;fill-rule:nonzero;stroke-width:0.398996" />
    <polygon
   class="fil1"
   points="2099.08,4014.16 2099.08,3925.48 2088.94,3925.48 2088.94,4014.16 "
   id="polygon54188"
   style="fill:#373435;fill-rule:nonzero;stroke-width:0.398996" />
    <path
   class="fil1"
   d="m 2184.58,4014.16 h 11.01 l -39.65,-88.68 h -10.52 l -39.77,88.68 h 10.76 l 9.89,-22.67 h 48.26 z m -54.1,-32.05 19.89,-45.61 20.14,45.61 z"
   id="path54190"
   style="fill:#373435;fill-rule:nonzero;stroke-width:0.398996" />
    <path
   class="fil1"
   d="m 2276.04,3925.48 h -35.86 v 88.68 h 35.48 c 26.09,0 45.98,-19.13 45.98,-44.34 0,-25.21 -19.76,-44.34 -45.6,-44.34 z m 0.12,79.3 h -25.84 v -69.93 h 25.47 c 19.89,0 35.59,15.08 35.59,35.1 0,19.89 -15.46,34.83 -35.22,34.83 z"
   id="path54192"
   style="fill:#373435;fill-rule:nonzero;stroke-width:0.398996" />
    <polygon
   class="fil1"
   points="2394.61,4014.16 2394.61,4004.78 2342.93,4004.78 2342.93,3973.88 2387.64,3973.88 2387.64,3964.63 2342.93,3964.63 2342.93,3934.85 2392.97,3934.85 2392.97,3925.48 2332.79,3925.48 2332.79,4014.16 "
   id="polygon54194"
   style="fill:#373435;fill-rule:nonzero;stroke-width:0.398996" />
    <polygon
   class="fil1"
   points="2507.74,4014.16 2507.74,4004.78 2456.06,4004.78 2456.06,3973.88 2500.78,3973.88 2500.78,3964.63 2456.06,3964.63 2456.06,3934.85 2506.1,3934.85 2506.1,3925.48 2445.92,3925.48 2445.92,4014.16 "
   id="polygon54196"
   style="fill:#373435;fill-rule:nonzero;stroke-width:0.398996" />
    <polygon
   class="fil1"
   points="2531.18,4014.16 2531.18,3942.2 2584.39,4014.16 2594.78,4014.16 2594.78,3925.48 2584.77,3925.48 2584.77,3997.56 2531.56,3925.48 2521.04,3925.48 2521.04,4014.16 "
   id="polygon54198"
   style="fill:#373435;fill-rule:nonzero;stroke-width:0.398996" />
    <path
   class="fil1"
   d="m 2664.57,3942.33 4.32,-8.99 c -7.36,-4.95 -17.87,-8.24 -28.13,-8.24 -18.37,0 -30.66,8.87 -30.66,22.8 0,31.8 49.91,19.26 49.78,42.95 0,8.62 -7.98,13.81 -20.77,13.81 -10.01,0 -21.28,-4.56 -29.51,-12.42 l -4.56,8.74 c 8.35,7.98 21.02,13.56 33.94,13.56 19.01,0 32.06,-9.5 32.06,-24.2 0.13,-32.18 -49.79,-20.14 -49.79,-43.19 0,-7.61 7.47,-12.17 18.87,-12.17 7.1,0 16.47,2.15 24.45,7.35 z"
   id="path54200"
   style="fill:#373435;fill-rule:nonzero;stroke-width:0.398996" />
    <polygon
   class="fil1"
   points="2694.59,4014.16 2694.59,3925.48 2684.45,3925.48 2684.45,4014.16 "
   id="polygon54202"
   style="fill:#373435;fill-rule:nonzero;stroke-width:0.398996" />
    <polygon
   class="fil1"
   points="2724.22,4014.16 2724.22,3942.2 2777.43,4014.16 2787.82,4014.16 2787.82,3925.48 2777.81,3925.48 2777.81,3997.56 2724.6,3925.48 2714.08,3925.48 2714.08,4014.16 "
   id="polygon54204"
   style="fill:#373435;fill-rule:nonzero;stroke-width:0.398996" />
    <path
   class="fil1"
   d="m 2845.57,3925.23 c -25.97,0 -46.49,19.64 -46.49,44.59 0,24.96 20.52,44.72 46.49,44.72 25.84,0 46.37,-19.76 46.37,-44.72 0,-24.95 -20.53,-44.59 -46.37,-44.59 z m 0,9.37 c 19.77,0 35.98,15.58 35.98,35.22 0,19.63 -16.21,35.47 -35.98,35.47 -19.76,0 -36.23,-15.84 -36.23,-35.47 0,-19.64 16.47,-35.22 36.23,-35.22 z"
   id="path54206"
   style="fill:#373435;fill-rule:nonzero;stroke-width:0.398996" />
    <path
   class="fil1"
   d="m 2976.94,3925.48 h -35.86 v 88.68 h 35.48 c 26.09,0 45.98,-19.13 45.98,-44.34 0,-25.21 -19.76,-44.34 -45.6,-44.34 z m 0.12,79.3 h -25.84 v -69.93 h 25.47 c 19.89,0 35.59,15.08 35.59,35.1 0,19.89 -15.46,34.83 -35.22,34.83 z"
   id="path54208"
   style="fill:#373435;fill-rule:nonzero;stroke-width:0.398996" />
    <polygon
   class="fil1"
   points="3095.51,4014.16 3095.51,4004.78 3043.83,4004.78 3043.83,3973.88 3088.54,3973.88 3088.54,3964.63 3043.83,3964.63 3043.83,3934.85 3093.87,3934.85 3093.87,3925.48 3033.69,3925.48 3033.69,4014.16 "
   id="polygon54210"
   style="fill:#373435;fill-rule:nonzero;stroke-width:0.398996" />
    <path
   class="fil1"
   d="m 3208.64,3997.82 c -6.84,4.68 -15.33,7.47 -23.31,7.47 -20.26,0 -36.61,-15.71 -36.61,-35.47 0,-19.64 16.22,-35.34 36.49,-35.34 9.88,0 19.64,3.79 26.85,10.26 l 5.83,-7.35 c -8.48,-7.48 -20.39,-12.16 -32.68,-12.16 -26.1,0 -46.75,19.64 -46.75,44.59 0,24.96 20.52,44.72 46.24,44.72 11.91,0 24.2,-4.56 32.94,-11.53 v -32.18 h -9 z"
   id="path54212"
   style="fill:#373435;fill-rule:nonzero;stroke-width:0.398996" />
    <path
   class="fil1"
   d="m 3304.42,4014.16 -20.9,-30.28 c 12.79,-4.05 20.01,-14.06 20.01,-28.63 0,-18.87 -12.8,-29.77 -34.97,-29.77 h -33.7 v 88.68 H 3245 v -28.13 h 23.56 c 2.04,0 3.93,-0.12 5.71,-0.25 l 18.62,28.38 z m -59.42,-37.5 v -41.81 h 23.56 c 16.1,0 25.22,7.1 25.22,20.65 0,13.94 -9.12,21.16 -25.22,21.16 z"
   id="path54214"
   style="fill:#373435;fill-rule:nonzero;stroke-width:0.398996" />
    <path
   class="fil1"
   d="m 3385.12,4014.16 h 11.01 l -39.65,-88.68 h -10.52 l -39.77,88.68 h 10.76 l 9.89,-22.67 h 48.26 z m -54.1,-32.05 19.89,-45.61 20.14,45.61 z"
   id="path54216"
   style="fill:#373435;fill-rule:nonzero;stroke-width:0.398996" />
    <path
   class="fil1"
   d="m 3438.56,3925.48 h -35.86 v 88.68 h 35.48 c 26.09,0 45.98,-19.13 45.98,-44.34 0,-25.21 -19.76,-44.34 -45.6,-44.34 z m 0.12,79.3 h -25.84 v -69.93 h 25.47 c 19.89,0 35.59,15.08 35.59,35.1 0,19.89 -15.46,34.83 -35.22,34.83 z"
   id="path54218"
   style="fill:#373435;fill-rule:nonzero;stroke-width:0.398996" />
    <path
   class="fil1"
   d="m 3503.42,3977.67 v -52.19 h -10.14 v 52.19 c 0,23.18 14.07,36.87 37.38,36.87 23.18,0 37.12,-13.69 37.12,-36.87 v -52.19 h -10.14 v 52.19 c 0,17.48 -10.13,27.62 -26.98,27.62 -16.85,0 -27.24,-10.14 -27.24,-27.62 z"
   id="path54220"
   style="fill:#373435;fill-rule:nonzero;stroke-width:0.398996" />
    <path
   class="fil1"
   d="m 3648.72,4014.16 h 11.02 l -39.65,-88.68 h -10.52 l -39.77,88.68 h 10.76 l 9.89,-22.67 h 48.26 z m -54.09,-32.05 19.89,-45.61 20.14,45.61 z"
   id="path54222"
   style="fill:#373435;fill-rule:nonzero;stroke-width:0.398996" />
    <path
   class="fil1"
   d="m 3702.16,4020.5 2.66,-6.09 c 11.15,-0.76 21.79,-5.82 29.77,-13.3 l -6.21,-6.71 c -6.96,6.58 -16.47,10.64 -26.22,10.64 -20.01,0 -36.1,-15.84 -36.1,-35.35 0,-19.63 16.09,-35.21 36.1,-35.21 9.75,0 19.38,4.18 26.22,11.02 l 6.09,-7.35 c -8.49,-7.99 -20.28,-12.92 -32.43,-12.92 -25.72,0 -46.24,19.64 -46.24,44.46 0,24.08 18.75,43.33 42.94,44.72 l -4.31,10.01 c 1.14,-0.13 2.92,-0.38 4.19,-0.38 4.05,0 6.33,2.53 6.33,5.45 0.12,3.16 -2.53,6.08 -6.72,6.08 -2.53,0 -5.44,-1.02 -7.47,-2.53 l -2.16,5.19 c 2.54,1.9 6.47,3.17 10.27,3.17 7.09,0 12.41,-4.57 12.29,-11.41 0,-5.44 -3.81,-8.86 -9,-9.49 z"
   id="path54224"
   style="fill:#373435;fill-rule:nonzero;stroke-width:0.398996" />
    <path
   class="fil1"
   d="m 3770.32,3905.34 c 5.06,0 7.98,7.72 15.33,7.72 6.84,0 10.51,-4.94 10.51,-14.19 h -6.59 c 0,4.31 -1.9,6.72 -5.44,6.72 -4.95,0 -8.37,-7.73 -15.33,-7.73 -6.84,0 -10.52,4.94 -10.52,14.19 h 6.59 c 0,-4.3 1.9,-6.71 5.45,-6.71 z m 40.79,108.82 h 11.02 l -39.65,-88.68 h -10.52 l -39.77,88.68 h 10.76 l 9.88,-22.67 h 48.27 z m -54.1,-32.05 19.89,-45.61 20.15,45.61 z"
   id="path54226"
   style="fill:#373435;fill-rule:nonzero;stroke-width:0.398996" />
    <path
   class="fil1"
   d="m 3864.69,3925.23 c -25.98,0 -46.5,19.64 -46.5,44.59 0,24.96 20.52,44.72 46.5,44.72 25.83,0 46.36,-19.76 46.36,-44.72 0,-24.95 -20.53,-44.59 -46.36,-44.59 z m 0,9.37 c 19.76,0 35.97,15.58 35.97,35.22 0,19.63 -16.21,35.47 -35.97,35.47 -19.77,0 -36.24,-15.84 -36.24,-35.47 0,-19.64 16.47,-35.22 36.24,-35.22 z"
   id="path54228"
   style="fill:#373435;fill-rule:nonzero;stroke-width:0.398996" />
    <path
   class="fil2"
   d="m 2805.54,1676.13 v -0.01 c -45.88,-45.87 -106.34,-68.81 -166.81,-68.81 -60.46,0 -120.93,22.94 -166.8,68.81 l -0.01,0.01 c -91.74,91.74 -92.74,242.87 0,333.61 62.25,60.9 134.03,90.9 166.81,226.67 32.79,-135.77 104.57,-165.77 166.81,-226.67 92.74,-90.74 91.74,-241.87 0,-333.61 z"
   id="path54230"
   style="fill:#0b6641;stroke-width:0.398996" />
    <path
   class="fil2"
   d="m 3343.15,2179.13 v -0.01 c 16.79,-62.66 6.42,-126.5 -23.81,-178.86 -30.23,-52.36 -80.33,-93.26 -143,-110.05 v 0 c -125.33,-33.58 -256.71,41.12 -288.92,166.8 -21.62,84.36 -11.71,161.52 -112.9,257.8 133.97,-39.49 195.85,7.67 279.71,31.13 124.95,34.95 255.33,-41.49 288.92,-166.81 z"
   id="path54232"
   style="fill:#0b6641;stroke-width:0.398996" />
    <path
   class="fil2"
   d="m 3176.34,2896.21 v 0 c 62.67,-16.79 112.77,-57.69 143,-110.05 30.23,-52.36 40.6,-116.2 23.81,-178.86 v -0.01 c -33.58,-125.32 -163.97,-201.75 -288.92,-166.8 -83.86,23.45 -145.73,70.61 -279.71,31.12 101.19,96.28 91.29,173.44 112.9,257.8 32.21,125.68 163.6,200.38 288.92,166.8 z"
   id="path54234"
   style="fill:#0b6641;stroke-width:0.398996" />
    <path
   class="fil2"
   d="m 2805.54,3110.29 v 0.01 c -45.88,45.87 -106.34,68.81 -166.81,68.81 -60.46,0 -120.93,-22.94 -166.8,-68.81 l -0.01,-0.01 c -91.74,-91.74 -92.74,-242.87 0,-333.61 62.25,-60.9 134.03,-90.9 166.81,-226.67 32.79,135.77 104.57,165.77 166.81,226.67 92.74,90.74 91.74,241.87 0,333.61 z"
   id="path54236"
   style="fill:#0b6641;stroke-width:0.398996" />
    <path
   class="fil2"
   d="m 2101.12,2896.21 v 0 c -62.67,-16.79 -112.77,-57.69 -143,-110.05 -30.23,-52.36 -40.6,-116.2 -23.81,-178.86 v -0.01 c 33.58,-125.32 163.97,-201.75 288.92,-166.8 83.86,23.45 145.73,70.61 279.71,31.12 -101.19,96.28 -91.29,173.44 -112.9,257.8 -32.21,125.68 -163.6,200.38 -288.92,166.8 z"
   id="path54238"
   style="fill:#0b6641;stroke-width:0.398996" />
    <path
   class="fil2"
   d="m 1934.31,2179.13 v -0.01 c -16.79,-62.66 -6.42,-126.5 23.81,-178.86 30.23,-52.36 80.33,-93.26 143,-110.05 v 0 c 125.33,-33.58 256.71,41.12 288.92,166.8 21.62,84.36 11.71,161.52 112.9,257.8 -133.97,-39.49 -195.85,7.67 -279.71,31.13 -124.95,34.95 -255.33,-41.49 -288.92,-166.81 z"
   id="path54240"
   style="fill:#0b6641;stroke-width:0.398996" />
    <path
   class="fil3"
   d="m 2292.39,1658.15 v 0 c -47.18,-13.12 -96.51,14.74 -109.62,61.92 v 0 c -13.12,47.18 14.74,96.51 61.92,109.63 l 78.57,21.85 c 3.97,1.1 8.11,-1.24 9.21,-5.21 l 21.85,-78.57 c 13.12,-47.18 -14.75,-96.5 -61.93,-109.62 z"
   id="path54242"
   style="fill:#5ca47a;stroke-width:0.398996" />
    <path
   class="fil3"
   d="m 3102.14,1725.74 v 0 c -12.23,-47.42 -61.02,-76.21 -108.44,-63.98 v 0 c -47.42,12.23 -76.2,61.02 -63.98,108.44 l 20.37,78.97 c 1.03,3.99 5.12,6.4 9.11,5.37 l 78.97,-20.36 c 47.41,-12.23 76.2,-61.02 63.97,-108.44 z"
   id="path54244"
   style="fill:#5ca47a;stroke-width:0.398996" />
    <path
   class="fil3"
   d="m 3448.48,2460.8 v 0 c 34.96,-34.3 35.49,-90.95 1.19,-125.9 v 0 c -34.3,-34.95 -90.95,-35.49 -125.9,-1.19 l -58.21,57.12 c -2.94,2.89 -2.98,7.64 -0.1,10.58 l 57.12,58.2 c 34.3,34.96 90.95,35.49 125.9,1.19 z"
   id="path54246"
   style="fill:#5ca47a;stroke-width:0.398996" />
    <path
   class="fil3"
   d="m 2985.07,3128.27 v 0 c 47.18,13.12 96.51,-14.75 109.63,-61.93 v 0 c 13.12,-47.18 -14.74,-96.5 -61.93,-109.62 l -78.56,-21.85 c -3.97,-1.1 -8.11,1.23 -9.21,5.2 l -21.85,78.57 c -13.12,47.18 14.74,96.51 61.92,109.63 z"
   id="path54248"
   style="fill:#5ca47a;stroke-width:0.398996" />
    <path
   class="fil3"
   d="m 2175.32,3060.68 v 0 c 12.23,47.42 61.02,76.2 108.44,63.98 v 0 c 47.42,-12.23 76.21,-61.03 63.98,-108.45 l -20.36,-78.96 c -1.03,-3.99 -5.12,-6.41 -9.11,-5.38 l -78.97,20.37 c -47.42,12.22 -76.21,61.02 -63.98,108.44 z"
   id="path54250"
   style="fill:#5ca47a;stroke-width:0.398996" />
    <path
   class="fil3"
   d="m 1828.98,2325.62 v 0 c -34.95,34.3 -35.48,90.95 -1.18,125.9 v 0 c 34.3,34.95 90.95,35.48 125.9,1.18 l 58.2,-57.11 c 2.94,-2.89 2.99,-7.64 0.1,-10.58 l -57.12,-58.21 c -34.3,-34.95 -90.95,-35.48 -125.9,-1.18 z"
   id="path54252"
   style="fill:#5ca47a;stroke-width:0.398996" />
    <circle
   class="fil3"
   cx="2642.6101"
   cy="2393.02"
   r="124.99"
   id="circle54254"
   style="fill:#5ca47a;stroke-width:0.398996" />
   </g><g
         id="g54274"
         transform="matrix(0.01,0,0,0.01,-743.2988,-5.110117)"
         style="clip-rule:evenodd;fill-rule:evenodd;stroke-width:0.398996;image-rendering:optimizeQuality;shape-rendering:geometricPrecision;text-rendering:geometricPrecision">
    <path
   class="fil4"
   d="m 6194.99,2372.08 42.1,131.64 c 4.8,14.41 11.54,31.19 14.8,45.18 h -116.85 c 1.71,-7.35 4.56,-14.5 7.1,-22.11 l 43.05,-132.22 c 1.56,-4.67 2.47,-7.17 3.81,-11.55 2.18,-6.99 1.94,-7.92 5.99,-10.94 z m -877.9,960.93 v 4.62 c 91.92,0 179.64,1.53 270.6,1.53 l 235.24,1.54 c 13.4,-0.05 20.41,1.59 33.81,1.54 92.01,-0.33 179.33,1.53 270.61,1.53 l 201.41,1.55 c 24.52,0 44.24,1.53 67.65,1.53 v -21.52 l -201.41,1.53 c -18.28,0 -50.59,-1.82 -67,0.65 -16.32,2.48 -109.92,0.9 -134.41,0.9 -46.94,0 -88.76,1.53 -135.3,1.53 -181.4,0 -359.32,3.07 -541.2,3.07 z m 0,-539.65 c 181.15,0 358.46,-3.08 539.65,-3.08 23.98,0 43.39,-1.53 66.13,-1.53 l 169.13,0.01 c 12.99,0.06 20.22,-1.6 33.81,-1.54 91.62,0.19 180.54,-1.55 270.6,-1.55 l -269.01,-6.21 c -91.92,-0.13 -179.65,-1.47 -270.66,-1.47 -78.36,0 -155.88,-1.98 -235.25,-1.53 -12.4,0.07 -20.23,-1.58 -33.8,-1.55 -92,0.11 -179.25,-1.53 -270.6,-1.53 z m 1.54,-224.49 c 0,62.9 31.77,114.99 90.69,138.4 46.78,18.6 117.89,16.43 164.11,-1.97 37.16,-14.81 66.57,-46.55 77.32,-85.67 6.35,-23.15 9.21,-44.06 9.21,-73.81 v -259.84 c 0,-3.48 -1.05,-4.58 -4.46,-4.6 h -0.16 -84.57 v 273.66 c 0,56.39 -25.84,87.63 -79.94,87.63 -35.42,0 -59.38,-9.09 -73.83,-38.4 -12.66,-25.66 -9.19,-65.09 -9.19,-103.04 l 0.13,-209.23 c 0.04,-5.73 1.18,-10.62 -4.74,-10.62 h -84.57 z M 5703,2708.81 h 381.3 c 0.65,-7.76 25.83,-83.82 27.67,-87.66 h 162.98 l 29.88,87.43 91.58,0.23 c -0.65,-7.86 -5.98,-18.62 -8.64,-26.74 l -38.37,-106.15 c -3.64,-9.42 -6.77,-18.41 -9.67,-27.24 l -57.54,-159.23 c -3.42,-8.62 -6.33,-17.25 -9.37,-26 l -28.62,-80.54 h -103.02 c -0.56,6.84 -27.11,79.88 -29.86,87 l -46.03,129.23 c -5.03,14.78 -10.52,28.12 -15.4,43.02 -3.23,9.87 -29.57,79.51 -30.16,86.69 h -230.62 v -107.63 h 202.95 v -73.8 h -202.95 v -89.17 h 218.31 c 3.54,0 4.61,-1.07 4.61,-4.61 v -70.73 H 5703 Z"
   id="path54258"
   style="fill:#006633;stroke-width:0.398996" />
    <path
   class="fil5"
   d="m 5457,3294.59 h 15.38 v -81.5 l 20.94,62.09 c 7.24,21.69 3.02,19.41 17.5,19.41 5.63,0 5.91,-7.74 9.41,-18.26 l 22.87,-64.77 v 83.03 h 15.39 v -106.11 c -24.96,0 -21.16,-1.73 -24.71,7.61 l -26.04,78.51 c -5.46,-7.85 -27.49,-83.86 -27.68,-86.12 H 5457 Z m 516.6,-353.63 h 15.38 v -106.09 h -15.38 z m -433.57,0 h 15.37 v -106.09 h -15.37 z m 219.86,79.94 c 0,7.71 13.1,4.63 33.83,4.63 v 92.25 h 15.36 v -92.25 c 38.73,0 33.83,3.65 33.83,-13.85 h -83.02 z m -152.21,-79.94 h 16.91 c 0.6,-7.14 5.96,-20.03 8.58,-26.79 l 26.79,-79.3 h -15.39 l -28.52,86.32 c -7.08,-20.79 -26.03,-69.72 -29.89,-86.32 h -15.39 z m 146.06,259.84 h 59.96 l -33.16,42.18 c -6.07,7.73 -31.41,36.19 -31.41,43.92 v 7.69 h 83.02 v -13.84 h -63.04 c 7.05,-10.51 63.04,-77.04 63.04,-81.49 v -10.78 h -78.41 z m 401.28,-347.49 c 4.79,3.51 15.33,36.21 16.92,43.06 h -30.76 c 0.77,-9.24 10.53,-28.8 13.84,-43.06 z m -46.11,87.65 h 15.37 c 2.09,-4.36 3.34,-9.43 5.18,-14.83 2.09,-6.15 4.14,-9.75 5.58,-15.93 h 41.51 c 3.51,7.34 8.76,22.19 10.76,30.76 h 16.92 l -29.02,-78.62 c -2.57,-7.14 -8.81,-20.1 -9.42,-27.47 h -18.45 c -1.95,8.4 -6.16,18.36 -9.23,26.15 -3.5,8.88 -6.48,17.37 -10.11,26.77 z m -750.31,264.45 15.37,44.58 h -32.27 l 14.38,-39.43 c 0.18,-0.46 0.7,-1.78 0.89,-2.17 1.45,-3.18 0.51,-1.37 1.63,-2.98 z m -47.66,89.18 h 15.38 l 10.75,-30.76 h 41.52 l 10.77,30.76 h 16.9 c -1.7,-3.57 -3.1,-8.49 -4.61,-12.32 l -35.36,-93.79 h -16.92 l -19.32,52.95 c -3.51,9.14 -6.58,17.47 -9.65,25.7 -2.3,6.19 -8.99,21.79 -9.46,27.46 z m 573.49,-266 2.51,5.17 c 0.99,2.48 1.38,3.73 2.11,5.59 3.99,10.21 8.01,25.74 12.29,33.83 h -32.29 z m -47.66,89.19 h 16.91 c 0.39,-4.83 8.64,-26.77 10.76,-30.77 h 41.51 l 10.76,30.77 h 15.38 c -0.58,-6.98 -6.72,-20.25 -9,-26.38 l -29.43,-79.72 h -16.92 z m 388.99,87.63 15.36,44.58 h -32.28 l 16.35,-43.61 c 0.11,-0.21 0.35,-0.67 0.57,-0.97 z m -47.67,89.18 h 15.37 l 10.77,-30.76 h 41.51 l 10.77,30.76 h 16.91 c -3.63,-7.56 -7.08,-17.97 -10.2,-26.73 l -20.1,-53.67 c -11.6,-29.5 -4.11,-25.71 -23.52,-25.71 -5.25,0 -8.25,14.1 -12.12,24.8 l -19.98,53.83 c -2.56,7.13 -8.79,20.1 -9.41,27.48 z m -521.22,-89.18 c 0.22,0.3 0.49,0.44 0.57,0.97 0.07,0.53 0.45,0.76 0.56,0.98 l 6.74,19.39 c 2.23,6.68 6.88,15.54 7.51,23.24 h -30.74 z m -47.65,89.18 h 16.9 c 0.95,-11.32 8.37,-20.36 9.23,-30.76 h 43.05 c 1.86,7.97 7.36,24.3 10.77,30.76 h 15.36 c -0.68,-8.35 -35.32,-92.75 -38.43,-106.11 h -16.91 c -3.82,7.22 -6.57,16.85 -9.88,25.49 z M 5321.7,2902.51 c 0,55.82 63.03,45.64 76.05,26.86 12.21,-17.63 8.51,-68.29 8.51,-94.5 h -15.37 c 0,15.58 1.89,70.55 -3.72,82.38 -7.05,14.84 -35.4,15.42 -45.16,3.4 -8.45,-10.45 -4.94,-65.88 -4.94,-85.78 h -15.37 z m 259.84,215.27 h 76.88 v -13.84 h -63.04 c 0,-21.25 -3.2,-35.37 4.6,-35.37 h 52.28 v -12.3 h -56.88 v -30.74 h 61.49 v -13.85 h -75.33 z m 93.79,-176.82 h 76.87 v -13.85 h -61.5 v -35.35 h 55.35 v -12.3 h -55.35 v -30.76 h 59.97 v -13.83 h -75.34 z m -1.55,96.87 c 0,20.1 9.71,25.05 29.52,30.45 13.07,3.53 35.07,5.25 35.07,20.26 0,16.89 -17.25,18.46 -29.22,18.46 -15.11,0 -23.42,-10.48 -24.59,-24.6 h -13.85 c 0,44.09 51.02,44.6 70.14,30.17 14.36,-10.82 17.35,-32.84 4.92,-45.25 -5.31,-5.29 -11.61,-6.78 -20.31,-8.91 -15.33,-3.75 -37.83,-5.34 -37.83,-20.58 0,-21.11 46.99,-25.83 47.66,4.61 h 15.38 c -4.15,-49.85 -76.89,-39.66 -76.89,-4.61 z m 651.91,-96.87 h 76.87 v -13.85 h -61.5 v -35.35 h 56.89 v -12.3 h -56.89 v -30.76 h 56.89 c 5.98,0 4.61,-3.94 4.61,-13.83 h -76.87 z m -453.56,-78.41 c 0,42.08 64.57,19.52 64.57,50.73 0,21.04 -52.27,27.54 -52.27,-7.69 h -15.38 c 0,50.6 83.02,51.57 83.02,3.07 0,-40.08 -64.57,-17.89 -64.57,-49.19 0,-19.11 46.12,-24.34 46.12,6.15 h 15.39 c 0,-47.12 -76.88,-42.72 -76.88,-3.07 z m 450.49,353.62 c 0,42.09 64.57,19.51 64.57,50.73 0,21.17 -52.27,27.49 -52.27,-7.69 h -15.39 c 0,50.6 83.03,51.57 83.03,3.07 0,-40.07 -64.58,-18.47 -64.58,-49.19 0,-19.1 46.13,-24.34 46.13,6.16 h 15.38 c 0,-47.33 -76.87,-42.57 -76.87,-3.08 z m -78.42,-112.23 h -27.68 v -79.97 c 24.14,0 56.9,-4.8 56.9,38.45 0,19.1 -6.86,41.52 -29.22,41.52 z m -43.05,13.84 h 43.05 c 58.49,0 60.17,-106.1 3.08,-106.1 h -46.13 z m -836.39,-13.84 h -27.69 v -79.97 h 23.07 c 23.54,0 33.83,16.56 33.83,39.99 0,20.66 -8.51,39.98 -29.21,39.98 z m -43.06,13.84 h 43.06 c 60.33,0 57.11,-106.1 6.14,-106.1 h -49.2 z m 734.93,-190.67 h -27.68 v -79.94 c 21.94,0 47.8,-3.94 54.2,22.67 6.37,26.48 -0.32,57.27 -26.52,57.27 z m -43.05,13.85 h 43.05 c 28.98,0 44.59,-24.61 44.59,-53.81 0,-28.91 -13.07,-52.28 -41.53,-52.28 h -46.11 z m 245.99,-13.85 h -26.13 v -79.94 c 37.51,0 55.34,-1.89 55.34,44.59 0,18.96 -10.34,35.35 -29.21,35.35 z m -41.51,13.85 h 43.05 c 24.74,0 43.06,-21.51 43.06,-46.13 0,-18.1 1.44,-31.45 -10.48,-46.41 -14.9,-18.74 -46.58,-13.55 -75.63,-13.55 z m -235.24,162.98 h -24.59 v -79.97 c 16.55,0 35.42,-2.4 45.81,8 14.12,14.13 18.97,71.97 -21.22,71.97 z m -39.97,13.84 c 31.59,0 60.34,5.23 76.28,-15.98 19.52,-25.99 15.87,-90.12 -30.15,-90.12 h -46.13 z m -126.07,-235.24 h -29.22 v -35.37 c 34.31,0 47.66,-3.85 47.66,19.99 0,10.44 -7.82,15.38 -18.44,15.38 z m -44.59,58.42 h 15.37 v -44.59 c 63.02,0 38.09,-3.13 49.21,44.59 h 18.44 c -1.65,-6.17 -5.65,-5.04 -6.13,-29.22 -0.13,-5.8 -0.31,-10.06 -2.14,-14.79 -3.04,-7.85 -4.66,-4.38 -8.64,-9.8 23.39,-12.38 14.82,-52.28 -13.83,-52.28 h -52.28 z m 155.29,258.3 c 14.13,0 22.51,-0.65 31.93,12.65 9.89,13.92 10.57,42.36 1.05,57.23 -9.25,14.42 -19.42,14.68 -31.45,14.68 -43.09,0 -41.51,-84.56 -1.53,-84.56 z m -46.13,39.97 c 0,17.59 3.79,31.4 12.03,41.79 20.16,25.41 89.44,29.68 89.44,-41.79 0,-27.67 -16.7,-53.82 -46.12,-53.82 h -9.22 c -28.04,0 -46.13,25.27 -46.13,53.82 z m -413.58,-216.78 c 12.78,0 23.61,-0.38 32.06,12.52 10.59,16.13 9.57,44.5 1.15,57.6 -8.69,13.5 -18.24,14.43 -31.68,14.43 -42.96,0 -41.01,-84.55 -1.53,-84.55 z m -46.13,41.51 c 0,16.8 4.44,30.67 12.03,40.24 18.78,23.7 89.44,32.67 89.44,-43.32 0,-27.92 -18.64,-52.28 -46.12,-52.28 -18.19,0 -31.29,1.57 -43.32,16.65 -7.09,8.9 -12.03,23.1 -12.03,38.71 z m 925.58,-41.51 c 14.12,0 22.51,-0.65 31.93,12.65 17.1,24.08 5.27,71.9 -21.17,71.9 h -9.23 c -43.01,0 -41.38,-84.55 -1.53,-84.55 z m -46.13,41.51 c 0,35.55 17.47,56.9 53.81,56.9 64.1,0 63.19,-112.26 1.54,-112.26 -18.2,0 -31.29,1.57 -43.33,16.65 -7.08,8.9 -12.02,23.1 -12.02,38.71 z M 6096.61,3107 c -11.77,0 -21.47,-0.3 -31.06,-13.53 -12.4,-17.09 -11.2,-71.02 23.36,-71.02 h 9.23 c 39.37,0 41.33,84.55 -1.53,84.55 z m -53.82,-46.12 c 0,37.88 14.63,59.98 53.82,59.98 64.38,0 62.64,-112.26 1.53,-112.26 h -9.23 c -27.48,0 -46.12,24.36 -46.12,52.28 z m -1.54,233.71 c 19.67,0 15.38,4.46 15.38,-38.45 0,-14.35 0,-28.69 0,-43.05 l 1.31,1.77 c 1.14,1.67 0.84,1.21 1.84,2.76 7.46,11.63 47.86,72.21 49.13,76.97 h 16.9 v -106.11 h -13.84 v 83.04 c -0.23,-0.27 -0.61,-1.06 -0.7,-0.82 l -12.83,-19.46 c -4.98,-7.45 -8.84,-14.12 -13.84,-21.53 l -20.58,-31.7 c -6.63,-10.97 -2.17,-9.53 -22.77,-9.53 z m -611.92,-353.63 h 15.37 v -83.04 l 27.19,42.02 c 4.68,7.92 9.17,13.76 14.04,21.32 13.86,21.65 7.66,19.7 29.5,19.7 v -106.09 h -15.38 v 81.49 l -3.4,-4.29 c -6.58,-9.27 -47.37,-71.58 -48.88,-77.2 h -18.44 z"
   id="path54260"
   style="fill:#000000;stroke-width:0.398996" />
    <path
   class="fil6"
   d="m 6733.94,1933.76 c -34.96,-72.76 -396.46,-358.93 -877.84,-346.52 -308.38,7.91 -731.65,173.62 -901.26,438.58 -53.1,83 8.5,161.3 104.71,186.77 148.63,31.82 460.2,-118.37 721.37,-231.34 h -0.01 c 172.58,-78.73 265.35,-108.34 367.07,-122.52 57.65,-8.01 458.13,-46.55 585.96,75.03 z"
   id="path54262"
   style="fill:#71bf4f;fill-rule:nonzero;stroke-width:0.398996" />
    <path
   class="fil7"
   d="m 5780.92,1981.24 c 36.56,22.51 357.04,20.8 585.74,345.21 79.68,113.02 292.59,75.04 370.68,14.15 84.12,-65.59 87.5,-175.32 87.72,-189.58 1.26,-82.47 -32.36,-161.34 -91.13,-217.24 -127.82,-121.6 -528.3,-83.06 -585.95,-75.05 -101.73,14.18 -194.49,43.81 -367.06,122.51 z"
   id="path54264"
   style="fill:#00804a;fill-rule:nonzero;stroke-width:0.398996" />
    <path
   class="fil6"
   d="m 4657.2,2528.19 c -45.55,66.64 -112.61,522.79 138.81,933.49 161.04,263.09 516.19,546.8 830.46,561.2 98.43,4.5 135.42,-88.01 109.39,-184.04 -46.76,-144.65 -332.62,-339.38 -561.04,-509.08 v 0.01 c -154.46,-110.08 -226.5,-175.61 -289.63,-256.63 -35.77,-45.9 -269.37,-373.48 -227.99,-544.95 z"
   id="path54266"
   style="fill:#71bf4f;fill-rule:nonzero;stroke-width:0.398996" />
    <path
   class="fil7"
   d="m 5174.81,3329.77 c 1.22,-42.91 -160.5,-319.6 6.1,-679.87 58.05,-125.51 -81.31,-290.9 -173.09,-328.1 -98.86,-40.04 -195.58,11.89 -208.04,18.82 -72.04,40.15 -123.54,108.7 -142.58,187.57 -41.38,171.47 192.22,499.04 227.99,544.95 63.13,81.02 135.18,146.55 289.62,256.63 z"
   id="path54268"
   style="fill:#00804a;fill-rule:nonzero;stroke-width:0.398996" />
    <path
   class="fil6"
   d="m 6210.34,4029.49 c 80.49,6.1 509.07,-163.89 739.03,-586.97 147.32,-271.02 215.45,-720.45 70.79,-999.81 -45.32,-87.48 -143.93,-73.28 -214.09,-2.71 -101.88,112.81 -127.6,457.73 -160.34,740.4 h 0.01 c -18.12,188.81 -38.85,283.96 -77.44,379.16 -21.87,53.92 -188.76,420.02 -357.96,469.93 z"
   id="path54270"
   style="fill:#71bf4f;fill-rule:nonzero;stroke-width:0.398996" />
    <path
   class="fil7"
   d="m 6645.74,3180.4 c -37.77,20.41 -196.54,298.81 -591.83,334.66 -137.73,12.5 -211.29,215.88 -197.6,313.95 14.74,105.65 108.08,163.44 120.32,170.77 70.78,42.31 155.9,52.64 233.71,29.7 169.21,-49.9 336.08,-416 357.96,-469.93 38.59,-95.19 59.32,-190.34 77.44,-379.15 z"
   id="path54272"
   style="fill:#00804a;fill-rule:nonzero;stroke-width:0.398996" />
   </g></g></g></svg>
